<svg height="100pt" viewBox="-24 0 496 496" width="100pt" xmlns="http://www.w3.org/2000/svg"><path d="m408 280c17.671875 0 32 14.328125 32 32s-14.328125 32-32 32h-368c-17.671875 0-32-14.328125-32-32s14.328125-32 32-32zm0 0" fill="#fc6e51"/><path d="m40 296h368c8.390625 0 16.289062-2.175781 23.160156-5.984375-5.832031-6.144531-14.023437-10.015625-23.160156-10.015625h-368c-9.136719 0-17.328125 3.871094-23.160156 10.015625 6.871094 3.808594 14.769531 5.984375 23.160156 5.984375zm0 0" fill="#e9573f"/><path d="m40 216c-17.671875 0-32 14.328125-32 32s14.328125 32 32 32h368c17.671875 0 32-14.328125 32-32s-14.328125-32-32-32zm0 0" fill="#cf9e76"/><path d="m40.839844 232h368c8.390625 0 16.289062-2.175781 23.160156-5.984375-5.832031-6.144531-14.023438-10.015625-23.160156-10.015625h-368c-9.136719 0-17.328125 3.871094-23.160156 10.015625 6.871093 3.808594 14.769531 5.984375 23.160156 5.984375zm0 0" fill="#b27946"/><path d="m28.375 405.824219c-11.925781-4.65625-20.375-16.257813-20.375-29.824219 0-17.671875 14.328125-32 32-32h368c17.671875 0 32 14.328125 32 32 0 13.566406-8.449219 25.167969-20.367188 29.824219l-11.632812 18.175781h-368zm0 0" fill="#ffeaa7"/><path d="m419.617188 154.175781c11.925781 4.648438 20.382812 16.25 20.382812 29.824219 0 17.671875-14.328125 32-32 32h-224c-8.839844 0-16 7.160156-16 16v64c0 8.839844-7.160156 16-16 16s-16-7.160156-16-16v-48c0-8.839844-7.160156-16-16-16s-16 7.160156-16 16v32c0 8.839844-7.160156 16-16 16s-16-7.160156-16-16v-48c0-8.839844-7.160156-16-16-16h-16c-17.671875 0-32-14.328125-32-32 0-13.257812 8.054688-24.625 19.542969-29.488281l4.457031-18.511719h376zm0 0" fill="#ffeaa7"/><path d="m8 424h432c0 35.34375-28.65625 64-64 64h-304c-35.34375 0-64-28.65625-64-64zm0 0" fill="#dfb28b"/><path d="m440 136h-432c0-70.695312 57.304688-128 128-128h176c70.695312 0 128 57.304688 128 128zm0 0" fill="#dfb28b"/><path d="m432.617188 163.679688c-3.449219-4.167969-7.875-7.511719-13-9.511719l-11.617188-18.167969h-376l-4.457031 18.511719c-4.773438 2.023437-8.902344 5.214843-12.167969 9.160156 9.65625 16.886719 27.816406 28.328125 48.625 28.328125 15.65625 0 29.832031-6.457031 40-16.839844 10.167969 10.382813 24.34375 16.839844 40 16.839844s29.832031-6.457031 40-16.839844c10.167969 10.382813 24.34375 16.839844 40 16.839844s29.832031-6.457031 40-16.839844c10.167969 10.382813 24.34375 16.839844 40 16.839844s29.832031-6.457031 40-16.839844c10.167969 10.382813 24.34375 16.839844 40 16.839844 20.800781 0 38.960938-11.433594 48.617188-28.320312zm0 0" fill="#fcd770"/><path d="m248 136 112 80h8l32-80zm0 0" fill="#ffc729"/><path d="m24 136c0 22.089844 17.910156 40 40 40s40-17.910156 40-40c0 22.089844 17.910156 40 40 40s40-17.910156 40-40c0 22.089844 17.910156 40 40 40s40-17.910156 40-40c0 22.089844 17.910156 40 40 40s40-17.910156 40-40c0 22.089844 17.910156 40 40 40s40-17.910156 40-40zm0 0" fill="#a0d468"/><path d="m424 424c0-22.089844-17.910156-40-40-40s-40 17.910156-40 40c0-22.089844-17.910156-40-40-40s-40 17.910156-40 40c0-22.089844-17.910156-40-40-40s-40 17.910156-40 40c0-22.089844-17.910156-40-40-40s-40 17.910156-40 40c0-22.089844-17.910156-40-40-40s-40 17.910156-40 40zm0 0" fill="#a0d468"/><path d="m39.160156 360h368c8.390625 0 16.289063-2.175781 23.160156-5.984375-5.832031-6.144531-14.023437-10.015625-23.160156-10.015625h-368c-9.136718 0-17.328125 3.871094-23.160156 10.015625 6.871094 3.808594 14.761719 5.984375 23.160156 5.984375zm0 0" fill="#fcd770"/><g fill="#8cc152"><path d="m107.375 408c-2.144531 4.902344-3.375 10.304688-3.375 16h80c0-5.695312-1.230469-11.097656-3.375-16zm0 0"/><path d="m187.375 408c-2.144531 4.902344-3.375 10.304688-3.375 16h80c0-5.695312-1.230469-11.097656-3.375-16zm0 0"/><path d="m27.375 408c-2.144531 4.902344-3.375 10.304688-3.375 16h80c0-5.695312-1.230469-11.097656-3.375-16zm0 0"/><path d="m267.375 408c-2.144531 4.902344-3.375 10.304688-3.375 16h80c0-5.695312-1.230469-11.097656-3.375-16zm0 0"/><path d="m347.375 408c-2.144531 4.902344-3.375 10.304688-3.375 16h80c0-5.695312-1.230469-11.097656-3.375-16zm0 0"/><path d="m260.625 152c2.144531-4.902344 3.375-10.304688 3.375-16h-80c0 5.695312 1.230469 11.097656 3.375 16zm0 0"/><path d="m420.625 152c2.144531-4.902344 3.375-10.304688 3.375-16h-80c0 5.695312 1.230469 11.097656 3.375 16zm0 0"/><path d="m340.625 152c2.144531-4.902344 3.375-10.304688 3.375-16h-80c0 5.695312 1.230469 11.097656 3.375 16zm0 0"/><path d="m100.625 152c2.144531-4.902344 3.375-10.304688 3.375-16h-80c0 5.695312 1.230469 11.097656 3.375 16zm0 0"/><path d="m180.625 152c2.144531-4.902344 3.375-10.304688 3.375-16h-80c0 5.695312 1.230469 11.097656 3.375 16zm0 0"/></g><path d="m448 144v-8c0-74.992188-61.007812-136-136-136h-176c-74.992188 0-136 61.007812-136 136v8h16.71875c.378906 2.214844.855469 4.390625 1.527344 6.496094-11.238282 7.289062-18.246094 19.777344-18.246094 33.503906 0 13.128906 6.449219 24.703125 16.246094 32-9.796875 7.296875-16.246094 18.871094-16.246094 32s6.449219 24.703125 16.246094 32c-9.796875 7.296875-16.246094 18.871094-16.246094 32s6.449219 24.703125 16.246094 32c-9.796875 7.296875-16.246094 18.871094-16.246094 32 0 13.832031 7 26.214844 18.257812 33.480469-.671874 2.113281-1.160156 4.296875-1.539062 6.519531h-16.71875v8c0 39.695312 32.304688 72 72 72h304c39.695312 0 72-32.304688 72-72v-8h-16.71875c-.378906-2.222656-.867188-4.40625-1.539062-6.519531 11.257812-7.265625 18.257812-19.648438 18.257812-33.480469 0-13.128906-6.449219-24.703125-16.246094-32 9.796875-7.296875 16.246094-18.871094 16.246094-32s-6.449219-24.703125-16.246094-32c9.796875-7.296875 16.246094-18.871094 16.246094-32s-6.449219-24.703125-16.246094-32c9.796875-7.296875 16.246094-18.871094 16.246094-32 0-13.832031-7-26.214844-18.257812-33.480469.671874-2.113281 1.160156-4.296875 1.539062-6.519531zm-312-128h176c63.480469 0 115.601562 49.550781 119.734375 112h-415.46875c4.132813-62.449219 56.253906-112 119.734375-112zm236.734375 166.617188-10.148437 25.382812-39.355469-28.105469c8.472656-3.726562 15.699219-9.757812 20.769531-17.390625 6.601562 9.9375 16.816406 17.230469 28.734375 20.113282zm-68.734375-14.617188c-14.863281 0-27.289062-10.238281-30.863281-24h61.726562c-3.574219 13.761719-16 24-30.863281 24zm-49.136719-24c-3.574219 13.761719-16 24-30.863281 24s-27.289062-10.238281-30.863281-24zm-80 0c-3.574219 13.761719-16 24-30.863281 24s-27.289062-10.238281-30.863281-24zm-80 0c-3.574219 13.761719-16 24-30.863281 24s-27.289062-10.238281-30.863281-24zm-78.863281 40c0-7.710938 3.695312-14.742188 9.6875-19.199219 8.769531 11.632813 22.65625 19.199219 38.3125 19.199219 16.671875 0 31.390625-8.542969 40-21.496094 8.609375 12.953125 23.328125 21.496094 40 21.496094s31.390625-8.542969 40-21.496094c8.609375 12.953125 23.328125 21.496094 40 21.496094s31.390625-8.542969 40-21.496094c8.113281 12.207032 21.6875 20.398438 37.183594 21.3125l33.855468 24.183594h-151.039062c-13.230469 0-24 10.769531-24 24v64c0 4.40625-3.59375 8-8 8s-8-3.59375-8-8v-48c0-13.230469-10.769531-24-24-24s-24 10.769531-24 24v32c0 4.40625-3.59375 8-8 8s-8-3.59375-8-8v-48c0-13.230469-10.769531-24-24-24h-16c-13.230469 0-24-10.769531-24-24zm346.640625 152c-11.730469 0-18.273437-10.503906-27.648437-27.816406-3.710938-6.847656-7.671876-14.015625-12.480469-20.183594h80.207031c-4.734375 6.078125-8.628906 13.175781-12.429688 20.183594-9.386718 17.3125-15.921874 27.816406-27.648437 27.816406zm-41.71875-20.183594c3.710937 6.847656 7.671875 14.015625 12.476563 20.183594h-80.222657c4.800781-6.175781 8.761719-13.335938 12.472657-20.183594 9.367187-17.3125 15.902343-27.816406 27.625-27.816406 11.726562 0 18.269531 10.503906 27.648437 27.816406zm-69.347656-7.625c-9.375 17.304688-15.910157 27.808594-27.621094 27.808594-11.722656 0-18.265625-10.503906-27.640625-27.816406-3.792969-7-7.6875-14.105469-12.425781-20.183594h80.144531c-4.792969 6.175781-8.742188 13.335938-12.457031 20.191406zm-193.894531 0c-3.792969-7.007812-7.6875-14.113281-12.414063-20.191406h20.207031c3.3125 9.289062 12.113282 16 22.527344 16s19.214844-6.710938 22.527344-16h14.769531c-4.730469 6.089844-8.601563 13.222656-12.375 20.191406-9.371094 17.304688-15.90625 27.808594-27.625 27.808594-11.710937 0-18.25-10.503906-27.617187-27.808594zm70.320312-36.191406h-16v-24c0-4.40625 3.59375-8 8-8s8 3.59375 8 8zm-1.007812 43.808594c1.457031-2.6875 2.894531-5.289063 4.34375-7.816406 4.160156 7.144531 11.816406 12.007812 20.664062 12.007812 10.808594 0 19.855469-7.222656 22.855469-17.054688 2.578125 4.023438 5.007812 8.460938 7.390625 12.863282 3.714844 6.855468 7.675781 14.015625 12.472656 20.191406h-80.199219c4.800781-6.175781 8.761719-13.335938 12.472657-20.191406zm-110.992188-67.808594c0-13.230469 10.769531-24 24-24h16c4.40625 0 8 3.59375 8 8v40h-24c-13.230469 0-24-10.769531-24-24zm0 64c0-8.414062 4.375-15.808594 10.945312-20.089844 6.398438 4.984375 11.40625 14.203125 16.664063 23.898438 3.710937 6.855468 7.671875 14.015625 12.46875 20.191406h-16.078125c-13.230469 0-24-10.769531-24-24zm360 168h-304c-28.167969 0-51.535156-20.894531-55.433594-48h414.859375c-3.890625 27.105469-27.257812 48-55.425781 48zm-342.863281-64c3.574219-13.761719 16-24 30.863281-24s27.289062 10.238281 30.863281 24zm80 0c3.574219-13.761719 16-24 30.863281-24s27.289062 10.238281 30.863281 24zm80 0c3.574219-13.761719 16-24 30.863281-24s27.289062 10.238281 30.863281 24zm80 0c3.574219-13.761719 16-24 30.863281-24s27.289062 10.238281 30.863281 24zm80 0c3.574219-13.761719 16-24 30.863281-24s27.289062 10.238281 30.863281 24zm78.863281-40c0 7.769531-3.671875 14.777344-9.671875 19.222656-8.769531-11.648437-22.664063-19.222656-38.328125-19.222656-16.671875 0-31.390625 8.542969-40 21.496094-8.609375-12.953125-23.328125-21.496094-40-21.496094s-31.390625 8.542969-40 21.496094c-8.609375-12.953125-23.328125-21.496094-40-21.496094s-31.390625 8.542969-40 21.496094c-8.609375-12.953125-23.328125-21.496094-40-21.496094s-31.390625 8.542969-40 21.496094c-8.609375-12.953125-23.328125-21.496094-40-21.496094-15.664062 0-29.558594 7.574219-38.328125 19.222656-6-4.445312-9.671875-11.453125-9.671875-19.222656 0-13.230469 10.769531-24 24-24h368c13.230469 0 24 10.769531 24 24zm-24-40h-16.128906c4.800781-6.175781 8.761718-13.335938 12.480468-20.183594 5.257813-9.703125 10.273438-18.929687 16.679688-23.914062 6.585938 4.28125 10.96875 11.671875 10.96875 20.097656 0 13.230469-10.769531 24-24 24zm24-88c0 13.230469-10.769531 24-24 24h-232v-40c0-4.40625 3.59375-8 8-8h224c13.230469 0 24 10.769531 24 24zm0-64c0 13.230469-10.769531 24-24 24h-28.183594l9.734375-24.351562c13.378907-1.550782 25.058594-8.625 32.769531-18.871094 6.007813 4.445312 9.679688 11.453125 9.679688 19.222656zm-48-16c-14.863281 0-27.289062-10.238281-30.863281-24h61.726562c-3.574219 13.761719-16 24-30.863281 24zm0 0"/><path d="m216 96h16v16h-16zm0 0"/><path d="m152 64h16v16h-16zm0 0"/><path d="m240 32h16v16h-16zm0 0"/><path d="m312 80h16v16h-16zm0 0"/><path d="m32 96h16v16h-16zm0 0"/><path d="m64 56h16v16h-16zm0 0"/><path d="m104 80h16v16h-16zm0 0"/><path d="m120 32h16v16h-16zm0 0"/><path d="m200 48h16v16h-16zm0 0"/><path d="m272 96h16v16h-16zm0 0"/><path d="m320 32h16v16h-16zm0 0"/><path d="m400 96h16v16h-16zm0 0"/><path d="m376 64h16v16h-16zm0 0"/><path d="m280 56h16v16h-16zm0 0"/></svg>